<svg version="1.1" id="Ebene_1" xmlns="http://www.w3.org/2000/svg" x="0" y="0" viewBox="0 0 150 100" style="enable-background:new 0 0 150 100" xml:space="preserve"><style>.st0{fill:#aaa}.st2{fill:#fff}</style><path class="st0" d="M48.7 58.9v13.9h-14V58.9h14m2-2h-18v17.9h18V56.9zM60.1 67.3v-1.4h3.7v3.4c-.4.4-.9.7-1.6.9s-1.4.4-2.1.4c-.9 0-1.7-.2-2.3-.6s-1.2-.9-1.5-1.6-.5-1.5-.5-2.3c0-.9.2-1.7.6-2.4.4-.7.9-1.2 1.6-1.6.6-.3 1.2-.4 2.1-.4 1.1 0 1.9.2 2.5.7s1 1.1 1.2 1.9l-1.8.3c-.1-.4-.3-.8-.7-1s-.8-.4-1.3-.4c-.8 0-1.4.2-1.8.7-.4.5-.7 1.2-.7 2.1 0 1 .2 1.8.7 2.3s1 .8 1.8.8c.4 0 .7-.1 1.1-.2s.7-.3.9-.5v-1.1h-1.9zM69 68.5l1.6.3c-.2.6-.5 1.1-1 1.4s-1 .5-1.7.5c-1.1 0-1.9-.4-2.4-1.1-.4-.6-.6-1.3-.6-2.1 0-1 .3-1.8.8-2.4s1.2-.9 2-.9c.9 0 1.7.3 2.2.9s.8 1.5.8 2.8h-4.1c0 .5.1.9.4 1.1s.6.4.9.4c.3 0 .5-.1.7-.2s.3-.4.4-.7zm.1-1.7c0-.5-.1-.8-.4-1.1s-.5-.4-.9-.4-.7.1-.9.4-.3.6-.3 1.1h2.5zM77.7 70.5h-1.6v-3.2c0-.7 0-1.1-.1-1.3s-.2-.4-.3-.5-.3-.2-.6-.2-.5.1-.8.2-.4.4-.5.6-.1.7-.1 1.4v2.8h-1.6v-6.2h1.5v.9c.5-.7 1.2-1.1 2.1-1.1.4 0 .7.1 1 .2s.5.3.7.5.3.4.3.7.1.6.1 1.1v4.1zM85.1 70.5h-1.5v-.9c-.3.4-.6.6-.9.8s-.7.3-1 .3c-.7 0-1.3-.3-1.8-.9s-.9-1.4-.9-2.5.2-1.9.7-2.4 1.1-.8 1.9-.8c.7 0 1.3.3 1.8.9v-3.1H85v8.6zm-4.4-3.3c0 .7.1 1.1.3 1.4.3.4.6.6 1.1.6.4 0 .7-.2 1-.5s.4-.8.4-1.4c0-.7-.1-1.2-.4-1.5s-.6-.5-1-.5-.7.2-1 .5-.4.8-.4 1.4zM90.4 68.5l1.6.3c-.2.6-.5 1.1-1 1.4s-1 .5-1.7.5c-1.1 0-1.9-.4-2.4-1.1-.4-.6-.6-1.3-.6-2.1 0-1 .3-1.8.8-2.4s1.2-.9 2-.9c.9 0 1.7.3 2.2.9s.8 1.5.8 2.8H88c0 .5.1.9.4 1.1s.6.4.9.4c.3 0 .5-.1.7-.2s.3-.4.4-.7zm0-1.7c0-.5-.1-.8-.4-1.1s-.5-.4-.9-.4-.7.1-.9.4-.2.7-.2 1.1h2.4zM95 70.5h-1.6v-6.2h1.5v.9c.3-.4.5-.7.7-.8s.4-.2.7-.2c.4 0 .7.1 1.1.3l-.5 1.4c-.3-.2-.5-.3-.8-.3-.2 0-.4.1-.6.2s-.3.4-.4.7-.1 1-.1 2.1v1.9zM118.9 16.3h-5v2h5v-2zm-7 0h-5v2h5v-2zm-7 0h-5v2h5v-2zm-7 0h-5v2h5v-2zm-7 0h-5v2h5v-2zm-7 0h-5v2h5v-2zm-7 0h-5v2h5v-2zm-7 0h-5v2h5v-2zm-7 0h-5v2h5v-2zm-7 0h-5v2h5v-2zm-7 0h-5v2h5v-2zm-7 0h-5v2h5v-2zm-7 0h-5v2h5v-2zm-7 0h-3.7v2h3.7v-2zm-1.8 3.3h-2v5h2v-5zm0 7h-2v5h2v-5zm0 7h-2v5h2v-5zm0 7h-2v5h2v-5zm0 7h-2v5h2v-5zm0 7h-2v5h2v-5zm0 7h-2v5h2v-5zm0 7h-2v5h2v-5zm0 7h-2v5h2v-5zm1.9 6.1h-3.9v.9-.9 2H28v-2zm7 0h-5v2h5v-2zm7 0h-5v2h5v-2zm7 0h-5v2h5v-2zm7 0h-5v2h5v-2zm7 0h-5v2h5v-2zm7 0h-5v2h5v-2zm7 0h-5v2h5v-2zm7 0h-5v2h5v-2zm7 0h-5v2h5v-2zm7 0h-5v2h5v-2zm7 0h-5v2h5v-2zm7 0h-5v2h5v-2zm7 0h-5v2h5v-2zm6.9 0H121v2h4.8v-2h.1zm0-5.2h-2v5h2v-5zm0-7h-2v5h2v-5zm0-7h-2v5h2v-5zm0-7h-2v5h2v-5zm0-7h-2v5h2v-5zm0-7h-2v5h2v-5zm0-7h-2v5h2v-5zm0-7h-2v5h2v-5zm0-7h-2v5h2v-5zm0-4.2h-5v2h3v.2h2v-2.2z"/><path style="fill:none;stroke:#aaa;stroke-width:2" d="m36.6 64.9 5.1 4.5 5.1-8.9"/><path class="st0" d="M68.3 39.7H40.8a6.7 6.7 0 0 1 0-13.4h27.5a6.7 6.7 0 0 1 0 13.4z"/><path class="st2" d="M41.1 36.5v-6.9h4.7v1.2h-3.3v1.6h2.9v1.2h-2.9v2.9h-1.4zM46.7 33.1c0-.7.1-1.3.3-1.8.2-.4.4-.7.6-.9.3-.3.6-.5.9-.6.4-.2.9-.3 1.5-.3 1 0 1.8.3 2.4.9s.9 1.5.9 2.6-.3 2-.9 2.6c-.6.6-1.4.9-2.4.9s-1.8-.3-2.5-.9-.8-1.4-.8-2.5zm1.4-.1c0 .8.2 1.4.5 1.8.4.4.8.6 1.4.6.6 0 1-.2 1.4-.6.4-.4.5-1 .5-1.8s-.2-1.4-.5-1.8c-.3-.4-.8-.6-1.4-.6-.6 0-1 .2-1.4.6-.3.4-.5 1-.5 1.8zM54.5 36.5v-6.9h2.9c.7 0 1.3.1 1.6.2.3.1.6.3.8.7.2.3.3.7.3 1.1 0 .5-.2.9-.5 1.3-.3.3-.8.6-1.4.6.3.2.6.4.7.6.2.2.5.6.8 1.1l.8 1.3H59L58 35c-.4-.5-.6-.9-.7-1-.1-.1-.3-.2-.4-.3-.1-.1-.4-.1-.7-.1h-.3v2.9h-1.4zm1.3-4h1c.7 0 1.1 0 1.3-.1.2-.1.3-.2.4-.3.1-.1.1-.3.1-.5s-.1-.4-.2-.6c-.1-.1-.3-.2-.5-.3h-2.1v1.8zM61.4 36.5v-6.9h2.1l1.3 4.7 1.2-4.7h2.1v6.9h-1.3V31l-1.4 5.4h-1.3L62.7 31v5.4h-1.3z"/></svg>